<mxfile host="app.diagrams.net" modified="2021-08-05T10:04:33.272Z" agent="5.0 (Macintosh; Intel Mac OS X 10_15_7) AppleWebKit/537.36 (KHTML, like Gecko) Chrome/92.0.4515.107 Safari/537.36" etag="lNZjj1dfWx5hcNHFOs3_" version="14.6.13" type="github">
  <diagram id="AaXn-4QMoDRZ1v7lDj-q" name="Page-1">
    <mxGraphModel dx="1406" dy="702" grid="1" gridSize="10" guides="1" tooltips="1" connect="1" arrows="1" fold="1" page="1" pageScale="1" pageWidth="850" pageHeight="1100" math="0" shadow="0">
      <root>
        <mxCell id="0" />
        <mxCell id="1" parent="0" />
        <mxCell id="D15wmb3ibbTLoDOedshr-2" value="" style="swimlane;startSize=0;" vertex="1" parent="1">
          <mxGeometry x="310" y="70" width="370" height="540" as="geometry" />
        </mxCell>
        <mxCell id="D15wmb3ibbTLoDOedshr-6" value="E-mail" style="text;html=1;strokeColor=none;fillColor=none;align=center;verticalAlign=middle;whiteSpace=wrap;rounded=0;" vertex="1" parent="D15wmb3ibbTLoDOedshr-2">
          <mxGeometry x="80" y="180" width="40" height="20" as="geometry" />
        </mxCell>
        <mxCell id="D15wmb3ibbTLoDOedshr-5" value="Name" style="text;html=1;strokeColor=none;fillColor=none;align=center;verticalAlign=middle;whiteSpace=wrap;rounded=0;" vertex="1" parent="D15wmb3ibbTLoDOedshr-2">
          <mxGeometry x="40" y="40" width="120" height="50" as="geometry" />
        </mxCell>
        <mxCell id="D15wmb3ibbTLoDOedshr-7" value="Channel" style="text;html=1;strokeColor=none;fillColor=none;align=center;verticalAlign=middle;whiteSpace=wrap;rounded=0;" vertex="1" parent="D15wmb3ibbTLoDOedshr-2">
          <mxGeometry x="80" y="310" width="40" height="20" as="geometry" />
        </mxCell>
        <mxCell id="D15wmb3ibbTLoDOedshr-11" value="Submit" style="rounded=1;whiteSpace=wrap;html=1;" vertex="1" parent="D15wmb3ibbTLoDOedshr-2">
          <mxGeometry x="140" y="430" width="120" height="30" as="geometry" />
        </mxCell>
        <mxCell id="D15wmb3ibbTLoDOedshr-13" value="" style="rounded=1;whiteSpace=wrap;html=1;" vertex="1" parent="D15wmb3ibbTLoDOedshr-2">
          <mxGeometry x="80" y="90" width="240" height="30" as="geometry" />
        </mxCell>
        <mxCell id="D15wmb3ibbTLoDOedshr-14" value="" style="rounded=1;whiteSpace=wrap;html=1;" vertex="1" parent="D15wmb3ibbTLoDOedshr-2">
          <mxGeometry x="80" y="220" width="240" height="30" as="geometry" />
        </mxCell>
        <mxCell id="D15wmb3ibbTLoDOedshr-15" value="" style="rounded=1;whiteSpace=wrap;html=1;" vertex="1" parent="D15wmb3ibbTLoDOedshr-2">
          <mxGeometry x="80" y="340" width="240" height="30" as="geometry" />
        </mxCell>
        <mxCell id="D15wmb3ibbTLoDOedshr-12" value="YouTube Form" style="text;html=1;align=center;verticalAlign=middle;resizable=0;points=[];autosize=1;strokeColor=none;" vertex="1" parent="1">
          <mxGeometry x="445" y="40" width="90" height="20" as="geometry" />
        </mxCell>
      </root>
    </mxGraphModel>
  </diagram>
</mxfile>
